# xmcd CD database file
#
# Track frame offsets:
#	150
#	16133
#	29920
#	50092
#	70942
#	87473
#	99477
#	115600
#	132277
#	143103
#	156468
#	176943
#	193399
#
# Disc length: 2854 seconds
#
# Revision: 0
# Processed by: cddbd v1.5.2PL0 Copyright (c) Steve Scherf et al.
# Submitted via: CDex 1.51
#
DISCID=c40b240d
DTITLE=Jim Brickman - Homecoming
DYEAR=2007
DGENRE=New Age
TTITLE0=Thanksgiving
TTITLE1=Good King Wenceslas
TTITLE2=Coming Home For Christmas w/ Victoria Shaw
TTITLE3=Gathering
TTITLE4=Deck the Halls
TTITLE5=Joy
TTITLE6=I Heard The Bells On Christmas Day
TTITLE7=Still Nacht
TTITLE8=I Saw Three Ships
TTITLE9=Bethlehem
TTITLE10=My Angel
TTITLE11=Auld Lang Syne
TTITLE12=Coming Home For Christmas w/ Richie McDonald
EXTD=YEAR: 2007
EXTT0=
EXTT1=
EXTT2=
EXTT3=
EXTT4=
EXTT5=
EXTT6=
EXTT7=
EXTT8=
EXTT9=
EXTT10=
EXTT11=
EXTT12=
PLAYORDER=
